PathFileType	4	(X/Y/Z)	/Users/itak/Documents/Research/Walk-IL/dataset/trc/00330_00011.trc
DataRate	CameraRate	NumFrames	NumMarkers	Units	OrigDataRate	OrigDataStartFrame	OrigNumFrames
100.000000	100.000000	4	53	mm	100.000000	0	493
Frame#	Time	RPSI			LPSI			L3			STRN			T10			C7			CLAV			RBAK			LBAK			LSHO			LUPA			LAEL			LAOL			LWTS			LWPS			LFRA			LIFD			LHTS			RSHO			RUPA			RAEL			RAOL			RWPS			RFRA			RIFD			RHTS			RHPS			RBHD			LFHD			RFHD			LBHD			LHIP			RHIP			RASI			LASI			LKNE			LTHI			LANK			LTIP			LTOE			LMT1			LMT5			LHEE			RKNE			RTHI			RANK			RTIP			RTOE			RMT1			RMT5			RHEE			RWTS			LHPS			
		X1	Y1	Z1	X2	Y2	Z2	X3	Y3	Z3	X4	Y4	Z4	X5	Y5	Z5	X6	Y6	Z6	X7	Y7	Z7	X8	Y8	Z8	X9	Y9	Z9	X10	Y10	Z10	X11	Y11	Z11	X12	Y12	Z12	X13	Y13	Z13	X14	Y14	Z14	X15	Y15	Z15	X16	Y16	Z16	X17	Y17	Z17	X18	Y18	Z18	X19	Y19	Z19	X20	Y20	Z20	X21	Y21	Z21	X22	Y22	Z22	X23	Y23	Z23	X24	Y24	Z24	X25	Y25	Z25	X26	Y26	Z26	X27	Y27	Z27	X28	Y28	Z28	X29	Y29	Z29	X30	Y30	Z30	X31	Y31	Z31	X32	Y32	Z32	X33	Y33	Z33	X34	Y34	Z34	X35	Y35	Z35	X36	Y36	Z36	X37	Y37	Z37	X38	Y38	Z38	X39	Y39	Z39	X40	Y40	Z40	X41	Y41	Z41	X42	Y42	Z42	X43	Y43	Z43	X44	Y44	Z44	X45	Y45	Z45	X46	Y46	Z46	X47	Y47	Z47	X48	Y48	Z48	X49	Y49	Z49	X50	Y50	Z50	X51	Y51	Z51	X52	Y52	Z52	X53	Y53	Z53	

1	0	911.5543212890625	970.6163330078125	189.3265228271484	903.1807861328125	972.3448486328125	61.14997100830078	903.1053466796875	1024.805297851562	131.7351837158203	1120.68359375	1211.9423828125	104.5721130371094	882.2734985351562	1145.387329101562	123.7150115966797	915.926025390625	1393.756103515625	103.2113342285156	1073.343627929688	1335.22216796875	101.429328918457	873.4896240234375	1256.051147460938	176.6133575439453	904.556640625	1355.62109375	2.075107097625732	987.9176025390625	1373.687377929688	-57.65814208984375	975.8523559570312	1251.498901367188	-123.3861389160156	1010.14013671875	1047.310668945312	-127.8856582641602	945.3905029296875	1033.015014648438	-74.28433990478516	1113.25537109375	809.8856811523438	-66.98399353027344	1080.055297851562	796.3853149414062	-125.8633651733398	1032.232543945312	944.535400390625	-129.59130859375	1120.588256835938	649.4896240234375	-58.76607513427734	1128.866088867188	731.5469970703125	-79.83061981201172	986.4170532226562	1380.274047851562	262.271484375	983.6593017578125	1316.592041015625	330.1875	1007.406494140625	1047.411743164062	359.9013977050781	950.18603515625	1038.446044921875	284.2088012695312	1091.019165039062	806.9203491210938	363.9129638671875	1036.44970703125	981.1184692382812	362.2168884277344	1128.660400390625	650.8605346679688	291.1559448242188	1145.208251953125	721.9306640625	299.7747192382812	1107.979125976562	723.3755493164062	359.029541015625	941.3230590820312	1590.732421875	180.7705688476562	1109.261474609375	1623.807861328125	62.35060501098633	1099.90771484375	1623.135864257812	162.9218292236328	928.6341552734375	1583.609619140625	36.94596481323242	979.697265625	913.1441040039062	-47.54279327392578	996.7857666015625	912.8919677734375	292.1045532226562	1098.859497070312	941.8995971679688	243.4674987792969	1105.824462890625	940.2673950195312	2.524066686630249	1009.150512695312	454.5478210449219	-36.88520431518555	1014.234008789062	595.0679321289062	-44.47982788085938	924.0975341796875	39.80827331542969	-13.90917110443115	963.22802734375	241.3130798339844	-35.81768417358398	1129.985961914062	30.85003089904785	44.40044403076172	1060.183837890625	21.3278636932373	84.56057739257812	1049.6337890625	35.43782806396484	-28.00203323364258	889.3483276367188	35.98451614379883	52.89209365844727	998.3201904296875	450.3253784179688	258.0593872070312	1045.920043945312	710.5238037109375	291.323486328125	925.7017211914062	40.59650421142578	222.0840454101562	996.5097045898438	331.6013488769531	246.2541351318359	1113.940185546875	33.89658737182617	156.0134582519531	1055.840209960938	29.67963981628418	119.6063079833984	1027.688354492188	26.45354843139648	234.3829040527344	871.9012451171875	43.6310920715332	177.6812591552734	1111.00634765625	821.95361328125	291.13818359375	1078.607421875	726.4871215820312	-119.6503372192383	
2	0.01	911.5177612304688	970.5990600585938	189.3448944091797	903.107177734375	972.3359985351562	61.14288711547852	903.0120849609375	1024.854614257812	131.6880493164062	1120.67626953125	1211.959228515625	104.4981460571289	882.271728515625	1145.420532226562	123.6625442504883	915.9146728515625	1393.794311523438	103.1266937255859	1073.339111328125	1335.223999023438	101.3398361206055	873.4674072265625	1256.075561523438	176.564697265625	904.5313720703125	1355.644775390625	2.011143207550049	987.8463134765625	1373.69091796875	-57.7393684387207	975.7822265625	1251.516723632812	-123.4906463623047	1009.980529785156	1047.311279296875	-127.9747161865234	945.2989501953125	1033.067504882812	-74.34255981445312	1112.995483398438	809.7882690429688	-67.09461975097656	1079.824462890625	796.3362426757812	-125.9612655639648	1032.015502929688	944.5349731445312	-129.7589721679688	1120.299926757812	649.4324951171875	-58.88629913330078	1128.589233398438	731.4314575195312	-80.19921112060547	986.4285888671875	1380.293090820312	262.2300109863281	983.6416015625	1316.657958984375	330.1050720214844	1007.285888671875	1047.408325195312	359.8512573242188	949.9262084960938	1038.528686523438	284.09228515625	1090.658325195312	806.8355102539062	363.9633483886719	1036.332275390625	981.123779296875	362.176025390625	1128.121826171875	650.654052734375	291.1897583007812	1144.78125	721.766357421875	299.8074340820312	1107.512329101562	723.2928466796875	358.9463195800781	941.301513671875	1590.714477539062	180.7091369628906	1109.2666015625	1623.81494140625	62.33105850219727	1099.906494140625	1623.131591796875	162.8904113769531	928.6434326171875	1583.639770507812	36.88064575195312	979.667724609375	913.119384765625	-47.53544616699219	996.6958618164062	912.920166015625	292.1388244628906	1098.776123046875	941.9283447265625	243.4469146728516	1105.793334960938	940.2973022460938	2.536704540252686	1009.123718261719	454.5148620605469	-36.85049057006836	1014.258483886719	595.0576782226562	-44.4863166809082	924.0992431640625	39.80789566040039	-13.90624046325684	963.2297973632812	241.3136291503906	-35.80952453613281	1129.98681640625	30.84774208068848	44.40402221679688	1060.1787109375	21.31898880004883	84.56950378417969	1049.6376953125	35.4382438659668	-27.99920272827148	889.351318359375	35.98612976074219	52.89312744140625	998.2964477539062	450.3316345214844	258.0657348632812	1045.93359375	710.5028076171875	291.2747192382812	925.7025756835938	40.59340667724609	222.0919952392578	996.49267578125	331.5934448242188	246.2541351318359	1113.935668945312	33.89319229125977	156.017333984375	1055.840576171875	29.68463325500488	119.604736328125	1027.690185546875	26.45252418518066	234.3826904296875	871.8828735351562	43.62673187255859	177.6833648681641	1110.671264648438	821.9088134765625	291.1224365234375	1078.436889648438	726.536376953125	-119.8148422241211	
3	0.02	911.4796142578125	970.5820922851562	189.3602905273438	903.0567626953125	972.3276977539062	61.13667678833008	902.8955078125	1024.89697265625	131.6346130371094	1120.669067382812	1211.980712890625	104.4259338378906	882.2727661132812	1145.447387695312	123.612434387207	915.9007568359375	1393.831298828125	103.0410079956055	1073.334228515625	1335.2294921875	101.2491607666016	873.4419555664062	1256.096801757812	176.5207977294922	904.5007934570312	1355.66455078125	1.944371938705444	987.7677612304688	1373.687255859375	-57.81787872314453	975.6961059570312	1251.518676757812	-123.591178894043	1009.825439453125	1047.3046875	-128.0502319335938	945.2131958007812	1033.11328125	-74.39139556884766	1112.726684570312	809.6632690429688	-67.18178558349609	1079.56689453125	796.2706298828125	-126.0321884155273	1031.801147460938	944.5233764648438	-129.9041595458984	1119.979614257812	649.3466796875	-58.98097610473633	1128.329711914062	731.3355712890625	-80.48615264892578	986.438720703125	1380.314208984375	262.1867980957031	983.62255859375	1316.724487304688	330.02734375	1007.172790527344	1047.41357421875	359.787353515625	949.652587890625	1038.615966796875	283.9407653808594	1090.261596679688	806.7443237304688	363.9486083984375	1036.221557617188	981.1107177734375	362.1038513183594	1127.54296875	650.390625	291.234130859375	1144.355712890625	721.6136474609375	299.7848205566406	1107.060791015625	723.1837768554688	358.8543395996094	941.2759399414062	1590.696166992188	180.6466369628906	1109.262084960938	1623.816528320312	62.30302429199219	1099.905395507812	1623.129760742188	162.8485260009766	928.6480102539062	1583.670166015625	36.81339645385742	979.6616821289062	913.095703125	-47.5246696472168	996.604248046875	912.9519653320312	292.1757202148438	1098.678955078125	941.965087890625	243.43505859375	1105.778564453125	940.3287963867188	2.559596061706543	1009.096069335938	454.4868774414062	-36.82184982299805	1014.293090820312	595.040771484375	-44.50064086914062	924.1019897460938	39.80540084838867	-13.90565776824951	963.2308349609375	241.3129425048828	-35.81457138061523	1129.987182617188	30.84326171875	44.40768814086914	1060.173461914062	21.30910301208496	84.58055114746094	1049.643188476562	35.43644714355469	-27.99863815307617	889.353515625	35.99388122558594	52.89237213134766	998.2739868164062	450.3430480957031	258.07421875	1046.076904296875	710.4164428710938	291.1426391601562	925.703369140625	40.59200668334961	222.0983428955078	996.4886474609375	331.579345703125	246.2490081787109	1113.931030273438	33.88881683349609	156.0218200683594	1055.841918945312	29.68913078308105	119.6008224487305	1027.69287109375	26.4508056640625	234.3810577392578	871.8618774414062	43.6246223449707	177.6814422607422	1110.308471679688	821.8406982421875	291.0686340332031	1078.234619140625	726.5585327148438	-119.9414215087891	
4	0.03	911.4345092773438	970.56884765625	189.3720245361328	903.017822265625	972.3213500976562	61.12673950195312	902.7593383789062	1024.932739257812	131.5747833251953	1120.660522460938	1212.007934570312	104.3546371459961	882.2744140625	1145.46923828125	123.5661239624023	915.8848266601562	1393.866088867188	102.9564590454102	1073.330322265625	1335.240234375	101.1581420898438	873.40869140625	1256.117431640625	176.4800262451172	904.464599609375	1355.680908203125	1.87442934513092	987.6849975585938	1373.677612304688	-57.89308929443359	975.59521484375	1251.5048828125	-123.6852874755859	1009.676452636719	1047.292846679688	-128.1128540039062	945.130859375	1033.14794921875	-74.42762756347656	1112.454223632812	809.5162963867188	-67.24269866943359	1079.287841796875	796.1929931640625	-126.083381652832	1031.596557617188	944.5023803710938	-130.0219421386719	1119.632568359375	649.2391357421875	-59.05403900146484	1128.083740234375	731.2586059570312	-80.68852233886719	986.4481201171875	1380.3388671875	262.1418151855469	983.6038818359375	1316.790405273438	329.9550476074219	1007.070068359375	1047.42724609375	359.7095947265625	949.3897705078125	1038.7041015625	283.7717590332031	1089.843505859375	806.6520385742188	363.8637084960938	1036.113525390625	981.0805053710938	362.0013732910156	1126.944702148438	650.0977783203125	291.2760314941406	1143.9384765625	721.4898681640625	299.6883850097656	1106.62548828125	723.064208984375	358.7735900878906	941.2482299804688	1590.680297851562	180.5850524902344	1109.250122070312	1623.814086914062	62.26471328735352	1099.905639648438	1623.131469726562	162.7952270507812	928.649169921875	1583.702758789062	36.74356842041016	979.6735229492188	913.0753784179688	-47.510498046875	996.506591796875	912.9927368164062	292.21337890625	1098.565063476562	942.006591796875	243.4323577880859	1105.77783203125	940.3616333007812	2.590936422348022	1009.078430175781	454.4632873535156	-36.800537109375	1014.335021972656	595.0184326171875	-44.52150344848633	924.1058349609375	39.80073165893555	-13.90853214263916	963.2366943359375	241.3100280761719	-35.83664321899414	1129.987548828125	30.83613777160645	44.41073226928711	1060.168212890625	21.2983341217041	84.59436798095703	1049.650268554688	35.43218612670898	-27.99945068359375	889.3546142578125	36.00817489624023	52.8892936706543	998.2590942382812	450.3600769042969	258.0833129882812	1046.341430664062	710.2677612304688	290.929443359375	925.7063598632812	40.59173583984375	222.1040344238281	996.5104370117188	331.5599365234375	246.2349395751953	1113.926635742188	33.88331604003906	156.0265808105469	1055.844116210938	29.69191932678223	119.595085144043	1027.69677734375	26.44849586486816	234.3771820068359	871.8436279296875	43.62762451171875	177.6769714355469	1109.921264648438	821.7484130859375	290.9810180664062	1077.985473632812	726.5435180664062	-120.0279541015625	
